<?xml version="1.0" encoding="UTF-8"?>
<!DOCTYPE svg PUBLIC "-//W3C//DTD SVG 1.1//EN" "http://www.w3.org/Graphics/SVG/1.1/DTD/svg11.dtd">
<svg xmlns="http://www.w3.org/2000/svg" version="1.1" width="666px" height="375px" style="shape-rendering:geometricPrecision; text-rendering:geometricPrecision; image-rendering:optimizeQuality; fill-rule:evenodd; clip-rule:evenodd" xmlns:xlink="http://www.w3.org/1999/xlink">
<g><path style="opacity:1" fill="#e1dae3" d="M 247.5,23.5 C 246.89,24.391 246.557,25.391 246.5,26.5C 229.527,35.9879 212.527,45.4879 195.5,55C 192.036,58.7846 190.702,63.2846 191.5,68.5C 191.5,69.1667 191.167,69.5 190.5,69.5C 189.833,69.5 189.5,69.1667 189.5,68.5C 190.8,64.5772 190.8,61.2439 189.5,58.5C 186.167,61.5 182.833,64.5 179.5,67.5C 183.98,60.854 189.647,55.354 196.5,51C 213.204,41.3144 230.204,32.1477 247.5,23.5 Z"/></g>
<g><path style="opacity:1" fill="#fab8fa" d="M 276.5,38.5 C 279.194,40.5272 281.527,42.8605 283.5,45.5C 283.833,46.1667 284.167,46.8333 284.5,47.5C 272.223,42.9509 259.556,41.4509 246.5,43C 247.252,43.6708 247.586,44.5041 247.5,45.5C 244.993,42.964 241.993,42.1307 238.5,43C 233.417,46.2921 228.25,49.4588 223,52.5C 222.505,54.4727 222.338,56.4727 222.5,58.5C 221.837,56.9581 221.17,55.2914 220.5,53.5C 211.178,64.0843 207.511,76.4176 209.5,90.5C 208.167,89.8333 207.167,88.8333 206.5,87.5C 205.427,81.8846 205.26,76.2179 206,70.5C 208.349,63.9562 211.182,57.6228 214.5,51.5C 223.677,45.4089 233.343,40.0755 243.5,35.5C 244.583,35.4606 245.583,35.1272 246.5,34.5C 247.167,35.1667 247.833,35.8333 248.5,36.5C 250.775,35.8926 253.109,35.5593 255.5,35.5C 262.57,36.1788 269.57,37.1788 276.5,38.5 Z"/></g>
<g><path style="opacity:1" fill="#434044" d="M 247.5,45.5 C 249.606,47.7188 250.606,50.3855 250.5,53.5C 244.536,57.1523 238.536,60.819 232.5,64.5C 230.079,64.1218 227.746,63.4552 225.5,62.5C 225.167,61.8333 224.833,61.1667 224.5,60.5C 224.167,59.5 223.5,58.8333 222.5,58.5C 222.338,56.4727 222.505,54.4727 223,52.5C 228.25,49.4588 233.417,46.2921 238.5,43C 241.993,42.1307 244.993,42.964 247.5,45.5 Z"/></g>
<g><path style="opacity:1" fill="#fba3fb" d="M 284.5,47.5 C 285.5,47.8333 286.167,48.5 286.5,49.5C 275.038,48.0708 263.538,47.4042 252,47.5C 251.505,49.4727 251.338,51.4727 251.5,53.5C 251.167,53.5 250.833,53.5 250.5,53.5C 250.606,50.3855 249.606,47.7188 247.5,45.5C 247.586,44.5041 247.252,43.6708 246.5,43C 259.556,41.4509 272.223,42.9509 284.5,47.5 Z"/></g>
<g><path style="opacity:1" fill="#39363a" d="M 284.5,43.5 C 283.662,43.8417 283.328,44.5084 283.5,45.5C 281.527,42.8605 279.194,40.5272 276.5,38.5C 266.453,25.3182 255.453,24.3182 243.5,35.5C 233.343,40.0755 223.677,45.4089 214.5,51.5C 207.965,54.0194 202.131,57.6861 197,62.5C 196.268,72.3611 199.435,80.6944 206.5,87.5C 207.167,88.8333 208.167,89.8333 209.5,90.5C 209.5,90.8333 209.5,91.1667 209.5,91.5C 208.209,91.2627 207.209,91.596 206.5,92.5C 202.458,88.46 198.791,84.1267 195.5,79.5C 194.141,75.7474 192.807,72.0808 191.5,68.5C 190.702,63.2846 192.036,58.7846 195.5,55C 212.527,45.4879 229.527,35.9879 246.5,26.5C 252.292,22.7164 258.292,22.5497 264.5,26C 272.918,29.923 279.584,35.7564 284.5,43.5 Z"/></g>
<g><path style="opacity:1" fill="#facefa" d="M 276.5,38.5 C 269.57,37.1788 262.57,36.1788 255.5,35.5C 253.109,35.5593 250.775,35.8926 248.5,36.5C 247.833,35.8333 247.167,35.1667 246.5,34.5C 245.583,35.1272 244.583,35.4606 243.5,35.5C 255.453,24.3182 266.453,25.3182 276.5,38.5 Z"/></g>
<g><path style="opacity:1" fill="#fe91fe" d="M 286.5,49.5 C 286.833,50.1667 287.167,50.8333 287.5,51.5C 286.621,53.2297 285.288,54.563 283.5,55.5C 272.952,52.415 262.286,51.7484 251.5,53.5C 251.338,51.4727 251.505,49.4727 252,47.5C 263.538,47.4042 275.038,48.0708 286.5,49.5 Z"/></g>
<g><path style="opacity:1" fill="#fac9fa" d="M 214.5,51.5 C 211.182,57.6228 208.349,63.9562 206,70.5C 205.26,76.2179 205.427,81.8846 206.5,87.5C 199.435,80.6944 196.268,72.3611 197,62.5C 202.131,57.6861 207.965,54.0194 214.5,51.5 Z"/></g>
<g><path style="opacity:0.98" fill="#c3c0c5" d="M 323.5,88.5 C 322.833,88.5 322.167,88.5 321.5,88.5C 308.928,73.684 296.594,58.684 284.5,43.5C 279.584,35.7564 272.918,29.923 264.5,26C 258.292,22.5497 252.292,22.7164 246.5,26.5C 246.557,25.391 246.89,24.391 247.5,23.5C 247.918,22.7784 248.584,22.2784 249.5,22C 258.625,20.4861 266.625,22.8194 273.5,29C 291.245,48.031 307.912,67.8643 323.5,88.5 Z"/></g>
<g><path style="opacity:1" fill="#fcacfc" d="M 222.5,58.5 C 223.5,58.8333 224.167,59.5 224.5,60.5C 223.504,60.5858 222.671,60.2524 222,59.5C 213.964,70.228 211.131,82.228 213.5,95.5C 211.833,94.5 210.5,93.1667 209.5,91.5C 209.5,91.1667 209.5,90.8333 209.5,90.5C 207.511,76.4176 211.178,64.0843 220.5,53.5C 221.17,55.2914 221.837,56.9581 222.5,58.5 Z"/></g>
<g><path style="opacity:1" fill="#e571fd" d="M 292.5,57.5 C 294.587,58.5846 295.92,60.2512 296.5,62.5C 295.833,62.1667 295.167,61.8333 294.5,61.5C 290.857,56.8641 289.191,57.5308 289.5,63.5C 247.548,53.7851 227.215,70.4518 228.5,113.5C 227.167,112.833 226.167,111.833 225.5,110.5C 222.863,94.22 226.863,79.72 237.5,67C 242.144,63.5132 247.144,60.8466 252.5,59C 264.132,57.3989 275.799,57.2323 287.5,58.5C 287.238,57.0222 287.571,55.6888 288.5,54.5C 289.852,55.5244 291.185,56.5244 292.5,57.5 Z"/></g>
<g><path style="opacity:1" fill="#fda1fd" d="M 224.5,60.5 C 224.833,61.1667 225.167,61.8333 225.5,62.5C 216.802,73.2963 213.802,85.6296 216.5,99.5C 215.026,98.5637 214.026,97.2303 213.5,95.5C 211.131,82.228 213.964,70.228 222,59.5C 222.671,60.2524 223.504,60.5858 224.5,60.5 Z"/></g>
<g><path style="opacity:1" fill="#d767fd" d="M 294.5,61.5 C 293.178,61.67 292.011,61.3366 291,60.5C 290.506,62.1341 290.34,63.8008 290.5,65.5C 248.685,56.502 228.852,73.1687 231,115.5C 231.278,114.584 231.778,113.918 232.5,113.5C 232.5,115.167 232.5,116.833 232.5,118.5C 230.457,117.421 229.124,115.754 228.5,113.5C 227.215,70.4518 247.548,53.7851 289.5,63.5C 289.191,57.5308 290.857,56.8641 294.5,61.5 Z"/></g>
<g><path style="opacity:1" fill="#fb93fb" d="M 225.5,62.5 C 227.746,63.4552 230.079,64.1218 232.5,64.5C 230.625,65.7316 228.792,66.3982 227,66.5C 220.551,76.6826 217.717,87.6826 218.5,99.5C 220.865,100.58 222.198,102.913 222.5,106.5C 219.8,104.766 217.8,102.432 216.5,99.5C 213.802,85.6296 216.802,73.2963 225.5,62.5 Z"/></g>
<g><path style="opacity:1" fill="#3d3b40" d="M 189.5,58.5 C 189.509,60.3084 189.009,61.9751 188,63.5C 185,66.5 182,69.5 179,72.5C 178.517,71.552 178.351,70.552 178.5,69.5C 178.328,68.5084 178.662,67.8417 179.5,67.5C 182.833,64.5 186.167,61.5 189.5,58.5 Z"/></g>
<g><path style="opacity:1" fill="#f9f8f9" d="M 189.5,68.5 C 189.5,69.1667 189.833,69.5 190.5,69.5C 190.517,71.5648 190.85,73.5648 191.5,75.5C 187.458,79.54 183.791,83.8733 180.5,88.5C 177.57,84.13 176.57,79.4634 177.5,74.5C 177.369,75.2389 177.536,75.9056 178,76.5C 181.979,72.8518 185.645,68.8518 189,64.5C 189.49,65.7932 189.657,67.1266 189.5,68.5 Z"/></g>
<g><path style="opacity:1" fill="#c85cfa" d="M 294.5,61.5 C 295.167,61.8333 295.833,62.1667 296.5,62.5C 298.914,63.9108 300.581,65.9108 301.5,68.5C 298.922,67.3379 296.422,66.0046 294,64.5C 292.88,66.0748 291.38,67.0748 289.5,67.5C 279.48,66.778 269.48,67.278 259.5,69C 250.068,72.2975 243.234,78.4641 239,87.5C 235.374,95.7967 233.207,104.463 232.5,113.5C 231.778,113.918 231.278,114.584 231,115.5C 228.852,73.1687 248.685,56.502 290.5,65.5C 290.34,63.8008 290.506,62.1341 291,60.5C 292.011,61.3366 293.178,61.67 294.5,61.5 Z"/></g>
<g><path style="opacity:1" fill="#b251ee" d="M 301.5,68.5 C 301.631,69.2389 301.464,69.9056 301,70.5C 298.619,69.565 296.119,69.2317 293.5,69.5C 293.5,70.5 293.5,71.5 293.5,72.5C 284.494,72.3336 275.494,72.5002 266.5,73C 255.386,75.7623 247.553,82.5956 243,93.5C 239.225,102.086 237.558,111.086 238,120.5C 237.768,121.737 237.268,122.737 236.5,123.5C 234.937,122.055 233.604,120.389 232.5,118.5C 232.5,116.833 232.5,115.167 232.5,113.5C 233.207,104.463 235.374,95.7967 239,87.5C 243.234,78.4641 250.068,72.2975 259.5,69C 269.48,67.278 279.48,66.778 289.5,67.5C 291.38,67.0748 292.88,66.0748 294,64.5C 296.422,66.0046 298.922,67.3379 301.5,68.5 Z"/></g>
<g><path style="opacity:1" fill="#a398ae" d="M 189.5,68.5 C 189.657,67.1266 189.49,65.7932 189,64.5C 185.645,68.8518 181.979,72.8518 178,76.5C 177.536,75.9056 177.369,75.2389 177.5,74.5C 177.216,72.5853 177.549,70.9187 178.5,69.5C 178.351,70.552 178.517,71.552 179,72.5C 182,69.5 185,66.5 188,63.5C 189.009,61.9751 189.509,60.3084 189.5,58.5C 190.8,61.2439 190.8,64.5772 189.5,68.5 Z"/></g>
<g><path style="opacity:1" fill="#f580fb" d="M 287.5,51.5 C 289.914,52.9108 291.581,54.9108 292.5,57.5C 291.185,56.5244 289.852,55.5244 288.5,54.5C 287.571,55.6888 287.238,57.0222 287.5,58.5C 275.799,57.2323 264.132,57.3989 252.5,59C 247.144,60.8466 242.144,63.5132 237.5,67C 226.863,79.72 222.863,94.22 225.5,110.5C 224.026,109.564 223.026,108.23 222.5,106.5C 222.198,102.913 220.865,100.58 218.5,99.5C 217.717,87.6826 220.551,76.6826 227,66.5C 228.792,66.3982 230.625,65.7316 232.5,64.5C 238.536,60.819 244.536,57.1523 250.5,53.5C 250.833,53.5 251.167,53.5 251.5,53.5C 262.286,51.7484 272.952,52.415 283.5,55.5C 285.288,54.563 286.621,53.2297 287.5,51.5 Z"/></g>
<g><path style="opacity:1" fill="#9542db" d="M 301.5,68.5 C 304.295,70.7514 306.628,73.4181 308.5,76.5C 309.366,78.144 309.866,79.8107 310,81.5C 306.162,79.4932 301.995,78.4932 297.5,78.5C 296.849,77.9094 296.182,77.2427 295.5,76.5C 286.563,76.5743 277.563,76.7409 268.5,77C 265.167,78.3333 261.833,79.6667 258.5,81C 256,83.5 253.5,86 251,88.5C 249.938,93.4356 248.271,98.1023 246,102.5C 245.322,104.598 245.489,106.598 246.5,108.5C 244.925,114.52 243.925,120.686 243.5,127C 243.316,128.376 242.649,129.209 241.5,129.5C 239.367,127.909 237.701,125.909 236.5,123.5C 237.268,122.737 237.768,121.737 238,120.5C 237.558,111.086 239.225,102.086 243,93.5C 247.553,82.5956 255.386,75.7623 266.5,73C 275.494,72.5002 284.494,72.3336 293.5,72.5C 293.5,71.5 293.5,70.5 293.5,69.5C 296.119,69.2317 298.619,69.565 301,70.5C 301.464,69.9056 301.631,69.2389 301.5,68.5 Z"/></g>
<g><path style="opacity:1" fill="#823ec6" d="M 297.5,78.5 C 298.341,80.3792 298.675,82.3792 298.5,84.5C 283.129,80.2704 269.962,83.6038 259,94.5C 257.08,97.3388 255.413,100.339 254,103.5C 254.561,106.454 254.394,109.454 253.5,112.5C 252.833,113.167 252.167,113.833 251.5,114.5C 250.834,111.311 250.167,107.977 249.5,104.5C 248.479,105.901 247.479,107.235 246.5,108.5C 245.489,106.598 245.322,104.598 246,102.5C 248.271,98.1023 249.938,93.4356 251,88.5C 253.5,86 256,83.5 258.5,81C 261.833,79.6667 265.167,78.3333 268.5,77C 277.563,76.7409 286.563,76.5743 295.5,76.5C 296.182,77.2427 296.849,77.9094 297.5,78.5 Z"/></g>
<g><path style="opacity:1" fill="#5f5a65" d="M 195.5,79.5 C 196.405,80.9643 196.405,82.2976 195.5,83.5C 192.167,86.5 188.833,89.5 185.5,92.5C 184.833,92.8333 184.167,93.1667 183.5,93.5C 183.892,91.8211 184.392,90.1545 185,88.5C 188.37,85.465 191.37,82.1317 194,78.5C 194.383,79.056 194.883,79.3893 195.5,79.5 Z"/></g>
<g><path style="opacity:1" fill="#5d23b3" d="M 308.5,76.5 C 310.633,78.0905 312.299,80.0905 313.5,82.5C 313.703,84.0443 314.37,85.3777 315.5,86.5C 315.167,86.8333 314.833,87.1667 314.5,87.5C 309.526,86.3719 304.526,85.3719 299.5,84.5C 299.167,84.5 298.833,84.5 298.5,84.5C 298.675,82.3792 298.341,80.3792 297.5,78.5C 301.995,78.4932 306.162,79.4932 310,81.5C 309.866,79.8107 309.366,78.144 308.5,76.5 Z"/></g>
<g><path style="opacity:1" fill="#b8a9c7" d="M 191.5,75.5 C 192.598,76.6009 192.765,77.9343 192,79.5C 188.247,83.0827 184.747,86.7494 181.5,90.5C 180.662,90.1583 180.328,89.4916 180.5,88.5C 183.791,83.8733 187.458,79.54 191.5,75.5 Z"/></g>
<g><path style="opacity:1" fill="#6737ac" d="M 298.5,84.5 C 298.833,84.5 299.167,84.5 299.5,84.5C 299.5,85.5 299.5,86.5 299.5,87.5C 277.309,84.0099 261.976,92.6765 253.5,113.5C 253.5,113.167 253.5,112.833 253.5,112.5C 254.394,109.454 254.561,106.454 254,103.5C 255.413,100.339 257.08,97.3388 259,94.5C 269.962,83.6038 283.129,80.2704 298.5,84.5 Z"/></g>
<g><path style="opacity:1" fill="#8b8394" d="M 191.5,68.5 C 192.807,72.0808 194.141,75.7474 195.5,79.5C 194.883,79.3893 194.383,79.056 194,78.5C 191.37,82.1317 188.37,85.465 185,88.5C 184.392,90.1545 183.892,91.8211 183.5,93.5C 182.599,92.7095 181.932,91.7095 181.5,90.5C 184.747,86.7494 188.247,83.0827 192,79.5C 192.765,77.9343 192.598,76.6009 191.5,75.5C 190.85,73.5648 190.517,71.5648 190.5,69.5C 191.167,69.5 191.5,69.1667 191.5,68.5 Z"/></g>
<g><path style="opacity:1" fill="#543098" d="M 299.5,87.5 C 299.842,88.3382 300.508,88.6716 301.5,88.5C 301.5,89.5 301.5,90.5 301.5,91.5C 275.103,87.264 260.77,98.264 258.5,124.5C 257.504,124.414 256.671,124.748 256,125.5C 254.631,121.623 253.798,117.623 253.5,113.5C 261.976,92.6765 277.309,84.0099 299.5,87.5 Z"/></g>
<g><path style="opacity:1" fill="#421a98" d="M 313.5,82.5 C 316.2,84.2344 318.2,86.5677 319.5,89.5C 320.028,90.8474 320.195,92.1807 320,93.5C 314.079,90.9778 307.912,89.3112 301.5,88.5C 300.508,88.6716 299.842,88.3382 299.5,87.5C 299.5,86.5 299.5,85.5 299.5,84.5C 304.526,85.3719 309.526,86.3719 314.5,87.5C 314.833,87.1667 315.167,86.8333 315.5,86.5C 314.37,85.3777 313.703,84.0443 313.5,82.5 Z"/></g>
<g><path style="opacity:1" fill="#f9f8f9" d="M 195.5,83.5 C 196.906,83.9731 197.573,84.9731 197.5,86.5C 194.528,90.3037 191.028,93.637 187,96.5C 185.812,95.4366 185.312,94.1033 185.5,92.5C 188.833,89.5 192.167,86.5 195.5,83.5 Z"/></g>
<g><path style="opacity:1" fill="#2b107c" d="M 301.5,88.5 C 307.912,89.3112 314.079,90.9778 320,93.5C 320.195,92.1807 320.028,90.8474 319.5,89.5C 321.156,91.4602 322.823,93.4602 324.5,95.5C 324.539,96.5832 324.873,97.5832 325.5,98.5C 324.667,98.8333 323.833,99.1667 323,99.5C 319.928,97.7464 316.761,96.0797 313.5,94.5C 310.232,93.513 306.898,93.1796 303.5,93.5C 303.167,92.5 302.5,91.8333 301.5,91.5C 301.5,90.5 301.5,89.5 301.5,88.5 Z"/></g>
<g><path style="opacity:1" fill="#3e2978" d="M 303.5,93.5 C 303.5,94.1667 303.5,94.8333 303.5,95.5C 294.101,94.5172 285.101,95.8506 276.5,99.5C 274.494,102.338 271.994,104.672 269,106.5C 267.772,109.598 266.606,112.598 265.5,115.5C 264.833,116.5 264.167,117.5 263.5,118.5C 263.16,114.869 263.994,111.536 266,108.5C 270.396,103.921 274.563,99.2546 278.5,94.5C 286.71,94.0363 295.043,93.703 303.5,93.5 Z"/></g>
<g><path style="opacity:1" fill="#ccbcda" d="M 197.5,86.5 C 198.167,86.8333 198.833,87.1667 199.5,87.5C 199.657,88.8734 199.49,90.2068 199,91.5C 195.026,94.0694 191.86,97.4027 189.5,101.5C 187.025,99.2297 185.025,96.563 183.5,93.5C 184.167,93.1667 184.833,92.8333 185.5,92.5C 185.312,94.1033 185.812,95.4366 187,96.5C 191.028,93.637 194.528,90.3037 197.5,86.5 Z"/></g>
<g><path style="opacity:1" fill="#412883" d="M 301.5,91.5 C 302.5,91.8333 303.167,92.5 303.5,93.5C 295.043,93.703 286.71,94.0363 278.5,94.5C 274.563,99.2546 270.396,103.921 266,108.5C 263.994,111.536 263.16,114.869 263.5,118.5C 262.71,119.609 262.21,120.942 262,122.5C 260.971,132.612 261.471,142.612 263.5,152.5C 263.253,153.713 262.586,154.38 261.5,154.5C 260.167,152.833 258.833,151.167 257.5,149.5C 258.967,150.292 260.3,150.292 261.5,149.5C 258.263,141.347 257.263,133.013 258.5,124.5C 260.77,98.264 275.103,87.264 301.5,91.5 Z"/></g>
<g><path style="opacity:1" fill="#2b272e" d="M 209.5,91.5 C 210.5,93.1667 211.833,94.5 213.5,95.5C 214.026,97.2303 215.026,98.5637 216.5,99.5C 217.8,102.432 219.8,104.766 222.5,106.5C 223.026,108.23 224.026,109.564 225.5,110.5C 226.167,111.833 227.167,112.833 228.5,113.5C 229.124,115.754 230.457,117.421 232.5,118.5C 233.604,120.389 234.937,122.055 236.5,123.5C 237.701,125.909 239.367,127.909 241.5,129.5C 243.787,133.122 246.453,136.455 249.5,139.5C 251.787,143.122 254.453,146.455 257.5,149.5C 258.833,151.167 260.167,152.833 261.5,154.5C 261.5,154.833 261.5,155.167 261.5,155.5C 264.167,159.833 266.833,164.167 269.5,168.5C 248.033,143.575 227.033,118.242 206.5,92.5C 207.209,91.596 208.209,91.2627 209.5,91.5 Z"/></g>
<g><path style="opacity:1" fill="#302361" d="M 303.5,95.5 C 304.167,96.1667 304.833,96.8333 305.5,97.5C 305.5,98.5 305.5,99.5 305.5,100.5C 292.297,98.4 281.464,102.4 273,112.5C 271.028,120.09 269.528,127.756 268.5,135.5C 267.596,136.209 267.263,137.209 267.5,138.5C 266.883,138.389 266.383,138.056 266,137.5C 265.986,130.026 265.819,122.692 265.5,115.5C 266.606,112.598 267.772,109.598 269,106.5C 271.994,104.672 274.494,102.338 276.5,99.5C 285.101,95.8506 294.101,94.5172 303.5,95.5 Z"/></g>
<g><path style="opacity:1" fill="#16121b" d="M 284.5,43.5 C 296.594,58.684 308.928,73.684 321.5,88.5C 326.5,94.5 331.5,100.5 336.5,106.5C 335.833,106.5 335.167,106.5 334.5,106.5C 333.833,106.167 333.167,105.833 332.5,105.5C 330.183,101.854 327.516,98.5203 324.5,95.5C 322.823,93.4602 321.156,91.4602 319.5,89.5C 318.2,86.5677 316.2,84.2344 313.5,82.5C 312.299,80.0905 310.633,78.0905 308.5,76.5C 306.628,73.4181 304.295,70.7514 301.5,68.5C 300.581,65.9108 298.914,63.9108 296.5,62.5C 295.92,60.2512 294.587,58.5846 292.5,57.5C 291.581,54.9108 289.914,52.9108 287.5,51.5C 287.167,50.8333 286.833,50.1667 286.5,49.5C 286.167,48.5 285.5,47.8333 284.5,47.5C 284.167,46.8333 283.833,46.1667 283.5,45.5C 283.328,44.5084 283.662,43.8417 284.5,43.5 Z"/></g>
<g><path style="opacity:1" fill="#1b0b62" d="M 303.5,93.5 C 306.898,93.1796 310.232,93.513 313.5,94.5C 316.761,96.0797 319.928,97.7464 323,99.5C 323.833,99.1667 324.667,98.8333 325.5,98.5C 324.873,97.5832 324.539,96.5832 324.5,95.5C 327.516,98.5203 330.183,101.854 332.5,105.5C 332.631,106.239 332.464,106.906 332,107.5C 323.098,104.297 314.264,100.963 305.5,97.5C 304.833,96.8333 304.167,96.1667 303.5,95.5C 303.5,94.8333 303.5,94.1667 303.5,93.5 Z"/></g>
<g><path style="opacity:1" fill="#8e8397" d="M 199.5,87.5 C 201.984,89.8003 203.984,92.4669 205.5,95.5C 207.104,100.101 206.604,104.434 204,108.5C 203.333,111.167 203.333,113.833 204,116.5C 206.285,118.907 208.451,121.407 210.5,124C 209.944,124.383 209.611,124.883 209.5,125.5C 202.486,117.817 195.82,109.817 189.5,101.5C 191.86,97.4027 195.026,94.0694 199,91.5C 199.49,90.2068 199.657,88.8734 199.5,87.5 Z"/></g>
<g><path style="opacity:1" fill="#0c0839" d="M 305.5,100.5 C 314.782,102.729 323.782,105.896 332.5,110C 333.119,111.757 334.286,112.924 336,113.5C 337.03,113.164 337.53,112.497 337.5,111.5C 343.929,117.366 348.595,124.366 351.5,132.5C 350.833,132.5 350.5,132.833 350.5,133.5C 347.911,124.911 342.244,119.244 333.5,116.5C 332.614,115.675 332.281,114.675 332.5,113.5C 328.63,112.232 324.963,110.398 321.5,108C 317.727,106.631 313.894,105.464 310,104.5C 309.235,104.57 308.735,104.903 308.5,105.5C 307.11,104.101 306.11,102.434 305.5,100.5 Z"/></g>
<g><path style="opacity:1" fill="#0f074a" d="M 305.5,97.5 C 314.264,100.963 323.098,104.297 332,107.5C 332.464,106.906 332.631,106.239 332.5,105.5C 333.167,105.833 333.833,106.167 334.5,106.5C 335.248,108.332 336.248,109.999 337.5,111.5C 337.53,112.497 337.03,113.164 336,113.5C 334.286,112.924 333.119,111.757 332.5,110C 323.782,105.896 314.782,102.729 305.5,100.5C 305.5,99.5 305.5,98.5 305.5,97.5 Z"/></g>
<g><path style="opacity:1" fill="#1e1c42" d="M 305.5,100.5 C 306.11,102.434 307.11,104.101 308.5,105.5C 308.833,106.833 309.167,108.167 309.5,109.5C 308.21,108.942 307.377,107.942 307,106.5C 301.249,107.31 295.416,107.81 289.5,108C 287.353,110.237 285.02,112.237 282.5,114C 282.833,114.333 283.167,114.667 283.5,115C 279.916,117.846 277.416,121.013 276,124.5C 274.396,139.29 276.396,153.957 282,168.5C 284.025,172.006 286.192,175.339 288.5,178.5C 286.847,178.34 285.514,177.674 284.5,176.5C 280.33,171.503 277.163,165.836 275,159.5C 272.186,151.089 270.52,142.422 270,133.5C 269.722,134.416 269.222,135.082 268.5,135.5C 269.528,127.756 271.028,120.09 273,112.5C 281.464,102.4 292.297,98.4 305.5,100.5 Z"/></g>
<g><path style="opacity:1" fill="#18182e" d="M 309.5,109.5 C 309.5,110.167 309.833,110.5 310.5,110.5C 310.557,111.609 310.89,112.609 311.5,113.5C 300.195,111.392 290.861,115.058 283.5,124.5C 284.167,125.5 284.833,126.5 285.5,127.5C 282.13,134.258 280.464,141.258 280.5,148.5C 282.833,150.341 283.166,152.508 281.5,155C 283.376,159.322 284.876,163.822 286,168.5C 286.883,171.102 288.383,173.269 290.5,175C 290.041,176.943 291.041,178.276 293.5,179C 292.944,179.383 292.611,179.883 292.5,180.5C 290.62,180.771 289.287,180.104 288.5,178.5C 286.192,175.339 284.025,172.006 282,168.5C 276.396,153.957 274.396,139.29 276,124.5C 277.416,121.013 279.916,117.846 283.5,115C 283.167,114.667 282.833,114.333 282.5,114C 285.02,112.237 287.353,110.237 289.5,108C 295.416,107.81 301.249,107.31 307,106.5C 307.377,107.942 308.21,108.942 309.5,109.5 Z"/></g>
<g><path style="opacity:1" fill="#7b7182" d="M 205.5,95.5 C 212.547,102.605 218.88,110.272 224.5,118.5C 225.366,120.144 225.866,121.811 226,123.5C 223.233,124.133 221.066,125.633 219.5,128C 221.653,130.822 223.819,133.656 226,136.5C 227.492,140.305 228.992,144.139 230.5,148C 229.944,148.383 229.611,148.883 229.5,149.5C 222.486,141.817 215.82,133.817 209.5,125.5C 209.611,124.883 209.944,124.383 210.5,124C 208.451,121.407 206.285,118.907 204,116.5C 203.333,113.833 203.333,111.167 204,108.5C 206.604,104.434 207.104,100.101 205.5,95.5 Z"/></g>
<g><path style="opacity:1" fill="#030413" d="M 351.5,140.5 C 351.993,142.806 352.326,145.139 352.5,147.5C 351.636,146.312 350.636,145.145 349.5,144C 349.833,143.667 350.167,143.333 350.5,143C 346.5,139 342.5,135 338.5,131C 333.835,128.334 329.169,125.667 324.5,123C 321.473,121.643 318.473,121.476 315.5,122.5C 315.011,121.005 314.345,119.671 313.5,118.5C 312.833,116.833 312.167,115.167 311.5,113.5C 310.89,112.609 310.557,111.609 310.5,110.5C 321.236,112.195 330.903,116.695 339.5,124C 341.861,127.468 344.694,130.634 348,133.5C 348.144,136.442 349.311,138.776 351.5,140.5 Z"/></g>
<g><path style="opacity:1" fill="#070525" d="M 350.5,133.5 C 350.993,135.806 351.326,138.139 351.5,140.5C 349.311,138.776 348.144,136.442 348,133.5C 344.694,130.634 341.861,127.468 339.5,124C 330.903,116.695 321.236,112.195 310.5,110.5C 309.833,110.5 309.5,110.167 309.5,109.5C 309.167,108.167 308.833,106.833 308.5,105.5C 308.735,104.903 309.235,104.57 310,104.5C 313.894,105.464 317.727,106.631 321.5,108C 324.963,110.398 328.63,112.232 332.5,113.5C 332.281,114.675 332.614,115.675 333.5,116.5C 342.244,119.244 347.911,124.911 350.5,133.5 Z"/></g>
<g><path style="opacity:1" fill="#141422" d="M 311.5,113.5 C 312.167,115.167 312.833,116.833 313.5,118.5C 308.823,118.835 304.156,119.335 299.5,120C 300.5,120.333 301.5,120.667 302.5,121C 300.238,121.642 298.071,122.475 296,123.5C 295.667,123.167 295.333,122.833 295,122.5C 290.662,126.181 287.995,130.848 287,136.5C 286.667,136.167 286.333,135.833 286,135.5C 285.744,138.557 285.244,141.557 284.5,144.5C 285,145.5 285.5,146.5 286,147.5C 286.219,146.062 286.719,144.729 287.5,143.5C 287.574,157.753 292.24,170.42 301.5,181.5C 300.209,182.527 300.209,183.527 301.5,184.5C 300.833,184.5 300.167,184.5 299.5,184.5C 297.167,183.167 294.833,181.833 292.5,180.5C 292.611,179.883 292.944,179.383 293.5,179C 291.041,178.276 290.041,176.943 290.5,175C 288.383,173.269 286.883,171.102 286,168.5C 284.876,163.822 283.376,159.322 281.5,155C 283.166,152.508 282.833,150.341 280.5,148.5C 280.464,141.258 282.13,134.258 285.5,127.5C 284.833,126.5 284.167,125.5 283.5,124.5C 290.861,115.058 300.195,111.392 311.5,113.5 Z"/></g>
<g><path style="opacity:1" fill="#111216" d="M 313.5,118.5 C 314.345,119.671 315.011,121.005 315.5,122.5C 317.428,126.285 318.762,130.285 319.5,134.5C 315.462,134.958 311.462,135.624 307.5,136.5C 307.762,137.978 307.429,139.311 306.5,140.5C 302.59,142.216 300.923,145.216 301.5,149.5C 299.8,149.374 298.3,148.707 297,147.5C 294.671,148.78 293.504,150.78 293.5,153.5C 295.049,159.283 296.716,164.949 298.5,170.5C 299.5,170.5 300.5,170.5 301.5,170.5C 301.833,173.167 302.167,175.833 302.5,178.5C 304.167,178.5 305.833,178.5 307.5,178.5C 307.241,181.48 308.574,183.313 311.5,184C 310.167,184.333 308.833,184.667 307.5,185C 308.416,185.278 309.082,185.778 309.5,186.5C 306.659,186.44 303.993,185.774 301.5,184.5C 300.209,183.527 300.209,182.527 301.5,181.5C 292.24,170.42 287.574,157.753 287.5,143.5C 286.719,144.729 286.219,146.062 286,147.5C 285.5,146.5 285,145.5 284.5,144.5C 285.244,141.557 285.744,138.557 286,135.5C 286.333,135.833 286.667,136.167 287,136.5C 287.995,130.848 290.662,126.181 295,122.5C 295.333,122.833 295.667,123.167 296,123.5C 298.071,122.475 300.238,121.642 302.5,121C 301.5,120.667 300.5,120.333 299.5,120C 304.156,119.335 308.823,118.835 313.5,118.5 Z"/></g>
<g><path style="opacity:1" fill="#6932bf" d="M 251.5,114.5 C 252.135,123.234 251.468,131.567 249.5,139.5C 246.453,136.455 243.787,133.122 241.5,129.5C 242.649,129.209 243.316,128.376 243.5,127C 243.925,120.686 244.925,114.52 246.5,108.5C 247.479,107.235 248.479,105.901 249.5,104.5C 250.167,107.977 250.834,111.311 251.5,114.5 Z"/></g>
<g><path style="opacity:1" fill="#040305" d="M 352.5,147.5 C 352.5,151.167 352.5,154.833 352.5,158.5C 352.5,159.833 352.5,161.167 352.5,162.5C 351.59,169.94 348.257,175.94 342.5,180.5C 341.828,179.733 340.995,179.066 340,178.5C 334.277,165.996 328.943,153.33 324,140.5C 323.021,138.032 321.521,136.032 319.5,134.5C 318.762,130.285 317.428,126.285 315.5,122.5C 318.473,121.476 321.473,121.643 324.5,123C 329.169,125.667 333.835,128.334 338.5,131C 342.5,135 346.5,139 350.5,143C 350.167,143.333 349.833,143.667 349.5,144C 350.636,145.145 351.636,146.312 352.5,147.5 Z"/></g>
<g><path style="opacity:1" fill="#09080b" d="M 334.5,106.5 C 335.167,106.5 335.833,106.5 336.5,106.5C 380.992,160.136 425.492,213.802 470,267.5C 474.796,273.759 477.963,280.759 479.5,288.5C 480.188,293.377 479.021,297.71 476,301.5C 463.629,318.266 450.796,334.599 437.5,350.5C 433.213,351.695 428.88,351.695 424.5,350.5C 419.926,347.515 415.926,343.848 412.5,339.5C 413.5,339.5 414.5,339.5 415.5,339.5C 420.228,345.03 426.228,347.53 433.5,347C 446.652,331.505 459.485,315.672 472,299.5C 477.948,290.804 477.781,282.138 471.5,273.5C 468.833,270.167 466.167,266.833 463.5,263.5C 461.804,261.475 460.137,259.475 458.5,257.5C 457.167,255.833 455.833,254.167 454.5,252.5C 452.833,250.5 451.167,248.5 449.5,246.5C 446.49,243.126 443.49,239.792 440.5,236.5C 440.262,234.596 439.262,233.262 437.5,232.5C 435.213,228.878 432.547,225.545 429.5,222.5C 427.528,218.895 424.861,215.895 421.5,213.5C 417.738,208.309 413.738,203.309 409.5,198.5C 406.158,195.008 403.158,191.175 400.5,187C 398.372,186.345 396.372,185.511 394.5,184.5C 389.57,181.406 384.237,179.073 378.5,177.5C 371.412,175.654 364.412,175.32 357.5,176.5C 353.993,176.92 350.659,177.92 347.5,179.5C 350.848,175.47 352.848,170.803 353.5,165.5C 354.49,159.69 354.823,153.69 354.5,147.5C 354.115,142.354 353.115,137.354 351.5,132.5C 348.595,124.366 343.929,117.366 337.5,111.5C 336.248,109.999 335.248,108.332 334.5,106.5 Z"/></g>
<g><path style="opacity:1" fill="#0e0e0e" d="M 319.5,134.5 C 321.521,136.032 323.021,138.032 324,140.5C 328.943,153.33 334.277,165.996 340,178.5C 340.995,179.066 341.828,179.733 342.5,180.5C 338.092,184.754 332.759,187.087 326.5,187.5C 320.642,187.822 314.975,187.489 309.5,186.5C 309.082,185.778 308.416,185.278 307.5,185C 308.833,184.667 310.167,184.333 311.5,184C 308.574,183.313 307.241,181.48 307.5,178.5C 305.833,178.5 304.167,178.5 302.5,178.5C 302.167,175.833 301.833,173.167 301.5,170.5C 300.5,170.5 299.5,170.5 298.5,170.5C 296.716,164.949 295.049,159.283 293.5,153.5C 293.504,150.78 294.671,148.78 297,147.5C 298.3,148.707 299.8,149.374 301.5,149.5C 300.923,145.216 302.59,142.216 306.5,140.5C 307.429,139.311 307.762,137.978 307.5,136.5C 311.462,135.624 315.462,134.958 319.5,134.5 Z"/></g>
<g><path style="opacity:1" fill="#221760" d="M 265.5,115.5 C 265.819,122.692 265.986,130.026 266,137.5C 266.383,138.056 266.883,138.389 267.5,138.5C 267.998,147.662 269.998,156.495 273.5,165C 273.333,165.5 273.167,166 273,166.5C 271.956,165.377 271.29,164.044 271,162.5C 270.617,163.056 270.117,163.389 269.5,163.5C 266.833,160.833 264.167,158.167 261.5,155.5C 261.5,155.167 261.5,154.833 261.5,154.5C 262.586,154.38 263.253,153.713 263.5,152.5C 261.471,142.612 260.971,132.612 262,122.5C 262.21,120.942 262.71,119.609 263.5,118.5C 264.167,117.5 264.833,116.5 265.5,115.5 Z"/></g>
<g><path style="opacity:1" fill="#49276d" d="M 351.5,132.5 C 353.115,137.354 354.115,142.354 354.5,147.5C 353.833,151.167 353.167,154.833 352.5,158.5C 352.5,154.833 352.5,151.167 352.5,147.5C 352.326,145.139 351.993,142.806 351.5,140.5C 351.326,138.139 350.993,135.806 350.5,133.5C 350.5,132.833 350.833,132.5 351.5,132.5 Z"/></g>
<g><path style="opacity:1" fill="#3f2297" d="M 253.5,112.5 C 253.5,112.833 253.5,113.167 253.5,113.5C 253.798,117.623 254.631,121.623 256,125.5C 256.671,124.748 257.504,124.414 258.5,124.5C 257.263,133.013 258.263,141.347 261.5,149.5C 260.3,150.292 258.967,150.292 257.5,149.5C 254.453,146.455 251.787,143.122 249.5,139.5C 251.468,131.567 252.135,123.234 251.5,114.5C 252.167,113.833 252.833,113.167 253.5,112.5 Z"/></g>
<g><path style="opacity:1" fill="#a371b4" d="M 354.5,147.5 C 354.823,153.69 354.49,159.69 353.5,165.5C 353.737,164.209 353.404,163.209 352.5,162.5C 352.5,161.167 352.5,159.833 352.5,158.5C 353.167,154.833 353.833,151.167 354.5,147.5 Z"/></g>
<g><path style="opacity:1" fill="#655e6e" d="M 224.5,118.5 C 243.224,139.558 261.224,161.225 278.5,183.5C 279.355,185.787 279.522,188.12 279,190.5C 280.141,192.609 281.641,194.442 283.5,196C 280.895,197.931 280.895,199.764 283.5,201.5C 284.251,200.624 284.751,199.624 285,198.5C 285.833,199.5 286.667,200.5 287.5,201.5C 288.086,201.291 288.586,200.957 289,200.5C 290.595,203.988 291.095,207.488 290.5,211C 293.229,215.787 295.062,220.954 296,226.5C 297.122,228.624 298.622,230.457 300.5,232C 299.944,232.383 299.611,232.883 299.5,233.5C 275.82,205.817 252.486,177.817 229.5,149.5C 229.611,148.883 229.944,148.383 230.5,148C 228.992,144.139 227.492,140.305 226,136.5C 223.819,133.656 221.653,130.822 219.5,128C 221.066,125.633 223.233,124.133 226,123.5C 225.866,121.811 225.366,120.144 224.5,118.5 Z"/></g>
<g><path style="opacity:1" fill="#9985b1" d="M 223.5,125.5 C 224.239,125.369 224.906,125.536 225.5,126C 227.644,128.979 229.978,131.812 232.5,134.5C 231.5,135.833 230.5,135.833 229.5,134.5C 226.663,132.008 224.663,129.008 223.5,125.5 Z"/></g>
<g><path style="opacity:1" fill="#171245" d="M 284.5,176.5 C 282.956,176.297 281.622,175.63 280.5,174.5C 279.893,174.624 279.56,174.957 279.5,175.5C 275.82,171.817 272.486,167.817 269.5,163.5C 270.117,163.389 270.617,163.056 271,162.5C 271.29,164.044 271.956,165.377 273,166.5C 273.167,166 273.333,165.5 273.5,165C 269.998,156.495 267.998,147.662 267.5,138.5C 267.263,137.209 267.596,136.209 268.5,135.5C 269.222,135.082 269.722,134.416 270,133.5C 270.52,142.422 272.186,151.089 275,159.5C 277.163,165.836 280.33,171.503 284.5,176.5 Z"/></g>
<g><path style="opacity:1" fill="#838c9b" d="M 357.5,176.5 C 364.412,175.32 371.412,175.654 378.5,177.5C 377.791,178.404 376.791,178.737 375.5,178.5C 371.534,177.838 367.534,177.505 363.5,177.5C 361.735,176.539 359.735,176.205 357.5,176.5 Z"/></g>
<g><path style="opacity:1" fill="#9da7b4" d="M 357.5,176.5 C 359.735,176.205 361.735,176.539 363.5,177.5C 355.712,177.641 349.379,180.641 344.5,186.5C 339.923,190.008 337.09,194.674 336,200.5C 334.696,206.423 334.196,212.423 334.5,218.5C 334.795,220.735 334.461,222.735 333.5,224.5C 330.793,211.046 332.793,198.379 339.5,186.5C 342.167,184.167 344.833,181.833 347.5,179.5C 350.659,177.92 353.993,176.92 357.5,176.5 Z"/></g>
<g><path style="opacity:1" fill="#020203" d="M 363.5,177.5 C 367.534,177.505 371.534,177.838 375.5,178.5C 381.226,180.077 386.893,182.077 392.5,184.5C 393.833,185.5 395.167,186.5 396.5,187.5C 396.389,188.117 396.056,188.617 395.5,189C 399.208,193.67 402.208,198.337 404.5,203C 404.043,203.414 403.709,203.914 403.5,204.5C 412.018,222.26 410.018,237.76 397.5,251C 395.913,251.862 394.246,252.529 392.5,253C 394.891,253.691 394.891,254.691 392.5,256C 391.451,256.492 390.451,256.326 389.5,255.5C 385.314,256.103 381.981,257.103 379.5,258.5C 378.167,258.333 376.833,258.167 375.5,258C 375.833,257.667 376.167,257.333 376.5,257C 374.942,256.79 373.609,256.29 372.5,255.5C 372.014,253.193 372.014,251.027 372.5,249C 369.495,246.517 367.328,243.35 366,239.5C 360.194,224.56 353.861,209.893 347,195.5C 345.57,192.647 344.737,189.647 344.5,186.5C 349.379,180.641 355.712,177.641 363.5,177.5 Z"/></g>
<g><path style="opacity:1" fill="#d1a5d3" d="M 352.5,162.5 C 353.404,163.209 353.737,164.209 353.5,165.5C 352.848,170.803 350.848,175.47 347.5,179.5C 344.833,181.833 342.167,184.167 339.5,186.5C 335.229,187.818 330.895,188.985 326.5,190C 322.311,190.812 318.311,190.645 314.5,189.5C 318.5,188.833 322.5,188.167 326.5,187.5C 332.759,187.087 338.092,184.754 342.5,180.5C 348.257,175.94 351.59,169.94 352.5,162.5 Z"/></g>
<g><path style="opacity:1" fill="#474d5b" d="M 378.5,177.5 C 384.237,179.073 389.57,181.406 394.5,184.5C 393.833,184.5 393.167,184.5 392.5,184.5C 386.893,182.077 381.226,180.077 375.5,178.5C 376.791,178.737 377.791,178.404 378.5,177.5 Z"/></g>
<g><path style="opacity:1" fill="#101011" d="M 261.5,155.5 C 264.167,158.167 266.833,160.833 269.5,163.5C 272.486,167.817 275.82,171.817 279.5,175.5C 285.766,180.467 292.766,184.134 300.5,186.5C 305.106,187.755 309.772,188.755 314.5,189.5C 318.311,190.645 322.311,190.812 326.5,190C 330.895,188.985 335.229,187.818 339.5,186.5C 332.793,198.379 330.793,211.046 333.5,224.5C 334.423,230.931 335.756,237.264 337.5,243.5C 337.762,244.978 337.429,246.311 336.5,247.5C 334.106,244.103 331.106,241.437 327.5,239.5C 327.5,239.167 327.5,238.833 327.5,238.5C 326.588,236.405 325.421,234.405 324,232.5C 320.945,228.376 317.445,224.709 313.5,221.5C 311.086,220.089 309.419,218.089 308.5,215.5C 306.913,212.732 305.08,210.065 303,207.5C 302.184,206.177 301.017,205.511 299.5,205.5C 289.5,193.167 279.5,180.833 269.5,168.5C 266.833,164.167 264.167,159.833 261.5,155.5 Z"/></g>
<g><path style="opacity:1" fill="#3d216e" d="M 284.5,176.5 C 285.514,177.674 286.847,178.34 288.5,178.5C 289.287,180.104 290.62,180.771 292.5,180.5C 294.833,181.833 297.167,183.167 299.5,184.5C 299.833,185.167 300.167,185.833 300.5,186.5C 292.766,184.134 285.766,180.467 279.5,175.5C 279.56,174.957 279.893,174.624 280.5,174.5C 281.622,175.63 282.956,176.297 284.5,176.5 Z"/></g>
<g><path style="opacity:1" fill="#8c5eac" d="M 299.5,184.5 C 300.167,184.5 300.833,184.5 301.5,184.5C 303.993,185.774 306.659,186.44 309.5,186.5C 314.975,187.489 320.642,187.822 326.5,187.5C 322.5,188.167 318.5,188.833 314.5,189.5C 309.772,188.755 305.106,187.755 300.5,186.5C 300.167,185.833 299.833,185.167 299.5,184.5 Z"/></g>
<g><path style="opacity:1" fill="#0d0d0e" d="M 344.5,186.5 C 344.737,189.647 345.57,192.647 347,195.5C 353.861,209.893 360.194,224.56 366,239.5C 367.328,243.35 369.495,246.517 372.5,249C 372.014,251.027 372.014,253.193 372.5,255.5C 366.229,255.347 360.896,252.68 356.5,247.5C 354.776,248.661 353.11,248.495 351.5,247C 348.266,243.491 344.766,240.325 341,237.5C 340.667,238.167 340.333,238.833 340,239.5C 339.722,238.584 339.222,237.918 338.5,237.5C 336.636,231.172 335.302,224.839 334.5,218.5C 334.196,212.423 334.696,206.423 336,200.5C 337.09,194.674 339.923,190.008 344.5,186.5 Z"/></g>
<g><path style="opacity:1" fill="#595360" d="M 278.5,183.5 C 303.248,211.911 327.248,240.911 350.5,270.5C 348.852,269.19 347.186,267.857 345.5,266.5C 342.721,268.986 339.888,268.986 337,266.5C 335.915,267.293 334.748,267.96 333.5,268.5C 332.258,266.267 330.924,264.101 329.5,262C 329.833,261.667 330.167,261.333 330.5,261C 328.114,260.716 327.448,259.716 328.5,258C 327.773,256.601 327.273,255.101 327,253.5C 325.17,257.144 323.503,256.81 322,252.5C 321.692,253.308 321.192,253.975 320.5,254.5C 318.733,252.212 316.4,250.879 313.5,250.5C 308.085,245.421 303.418,239.754 299.5,233.5C 299.611,232.883 299.944,232.383 300.5,232C 298.622,230.457 297.122,228.624 296,226.5C 295.062,220.954 293.229,215.787 290.5,211C 291.095,207.488 290.595,203.988 289,200.5C 288.586,200.957 288.086,201.291 287.5,201.5C 286.667,200.5 285.833,199.5 285,198.5C 284.751,199.624 284.251,200.624 283.5,201.5C 280.895,199.764 280.895,197.931 283.5,196C 281.641,194.442 280.141,192.609 279,190.5C 279.522,188.12 279.355,185.787 278.5,183.5 Z"/></g>
<g><path style="opacity:1" fill="#3f3c40" d="M 299.5,205.5 C 301.017,205.511 302.184,206.177 303,207.5C 305.08,210.065 306.913,212.732 308.5,215.5C 304.788,212.789 301.788,209.456 299.5,205.5 Z"/></g>
<g><path style="opacity:1" fill="#343135" d="M 313.5,221.5 C 317.445,224.709 320.945,228.376 324,232.5C 325.421,234.405 326.588,236.405 327.5,238.5C 322.085,233.421 317.418,227.754 313.5,221.5 Z"/></g>
<g><path style="opacity:1" fill="#394151" d="M 334.5,218.5 C 335.302,224.839 336.636,231.172 338.5,237.5C 338.263,238.791 338.596,239.791 339.5,240.5C 339.629,242.216 339.962,243.883 340.5,245.5C 340.5,246.5 340.5,247.5 340.5,248.5C 339.687,246.739 338.687,245.072 337.5,243.5C 335.756,237.264 334.423,230.931 333.5,224.5C 334.461,222.735 334.795,220.735 334.5,218.5 Z"/></g>
<g><path style="opacity:1" fill="#9e99a1" d="M 195.5,79.5 C 198.791,84.1267 202.458,88.46 206.5,92.5C 227.033,118.242 248.033,143.575 269.5,168.5C 279.5,180.833 289.5,193.167 299.5,205.5C 301.788,209.456 304.788,212.789 308.5,215.5C 309.419,218.089 311.086,220.089 313.5,221.5C 317.418,227.754 322.085,233.421 327.5,238.5C 327.5,238.833 327.5,239.167 327.5,239.5C 353.211,269.875 378.544,300.542 403.5,331.5C 400.081,329.355 397.081,326.688 394.5,323.5C 380.581,305.244 365.914,287.578 350.5,270.5C 327.248,240.911 303.248,211.911 278.5,183.5C 261.224,161.225 243.224,139.558 224.5,118.5C 218.88,110.272 212.547,102.605 205.5,95.5C 203.984,92.4669 201.984,89.8003 199.5,87.5C 198.833,87.1667 198.167,86.8333 197.5,86.5C 197.573,84.9731 196.906,83.9731 195.5,83.5C 196.405,82.2976 196.405,80.9643 195.5,79.5 Z"/></g>
<g><path style="opacity:1" fill="#090c18" d="M 392.5,184.5 C 393.167,184.5 393.833,184.5 394.5,184.5C 396.372,185.511 398.372,186.345 400.5,187C 403.158,191.175 406.158,195.008 409.5,198.5C 408.903,198.735 408.57,199.235 408.5,200C 413.045,209.636 416.379,219.636 418.5,230C 417.284,235.45 416.118,240.95 415,246.5C 412.115,250.869 409.949,255.536 408.5,260.5C 403.088,263.709 397.421,266.709 391.5,269.5C 387.992,268.608 384.325,268.442 380.5,269C 378.963,267.89 378.297,266.39 378.5,264.5C 374.858,263.92 371.191,263.42 367.5,263C 359.091,258.436 350.757,253.27 342.5,247.5C 342.5,246.167 341.833,245.5 340.5,245.5C 339.962,243.883 339.629,242.216 339.5,240.5C 345.094,244.739 350.761,249.072 356.5,253.5C 357.086,253.291 357.586,252.957 358,252.5C 358.833,254 360,255.167 361.5,256C 364.7,256.101 367.7,256.768 370.5,258C 369.167,258.333 367.833,258.667 366.5,259C 371.628,258.53 375.961,260.03 379.5,263.5C 384.844,261.998 390.177,260.498 395.5,259C 397.092,256.782 399.092,255.115 401.5,254C 402.945,250.95 404.778,248.117 407,245.5C 407.333,246.167 407.667,246.833 408,247.5C 409.692,239.538 411.192,231.538 412.5,223.5C 412.132,217.843 410.465,212.676 407.5,208C 407.957,207.586 408.291,207.086 408.5,206.5C 405.497,200.495 402.497,194.495 399.5,188.5C 398.583,187.873 397.583,187.539 396.5,187.5C 395.167,186.5 393.833,185.5 392.5,184.5 Z"/></g>
<g><path style="opacity:0.906" fill="#9b999d" d="M 321.5,88.5 C 322.167,88.5 322.833,88.5 323.5,88.5C 373.092,148.602 422.925,208.602 473,268.5C 477.222,274.606 480.055,281.273 481.5,288.5C 480.833,288.5 480.167,288.5 479.5,288.5C 477.963,280.759 474.796,273.759 470,267.5C 425.492,213.802 380.992,160.136 336.5,106.5C 331.5,100.5 326.5,94.5 321.5,88.5 Z"/></g>
<g><path style="opacity:1" fill="#181f2e" d="M 423.5,226.5 C 424.586,226.62 425.253,227.287 425.5,228.5C 426.657,235.915 426.157,243.248 424,250.5C 417.255,261.912 408.422,271.412 397.5,279C 393.805,279.318 390.138,279.818 386.5,280.5C 384.962,280.547 383.962,279.88 383.5,278.5C 386.392,278.279 389.059,277.446 391.5,276C 388.305,275.819 385.305,275.319 382.5,274.5C 394.899,272.883 405.065,267.216 413,257.5C 415.71,250.762 418.376,244.096 421,237.5C 421.333,232.5 421.667,227.5 422,222.5C 422.333,224.5 422.667,226.5 423,228.5C 423.464,227.906 423.631,227.239 423.5,226.5 Z"/></g>
<g><path style="opacity:1" fill="#060711" d="M 396.5,187.5 C 397.583,187.539 398.583,187.873 399.5,188.5C 402.497,194.495 405.497,200.495 408.5,206.5C 408.291,207.086 407.957,207.586 407.5,208C 410.465,212.676 412.132,217.843 412.5,223.5C 411.192,231.538 409.692,239.538 408,247.5C 407.667,246.833 407.333,246.167 407,245.5C 404.778,248.117 402.945,250.95 401.5,254C 399.092,255.115 397.092,256.782 395.5,259C 390.177,260.498 384.844,261.998 379.5,263.5C 375.961,260.03 371.628,258.53 366.5,259C 367.833,258.667 369.167,258.333 370.5,258C 367.7,256.768 364.7,256.101 361.5,256C 360,255.167 358.833,254 358,252.5C 357.586,252.957 357.086,253.291 356.5,253.5C 350.761,249.072 345.094,244.739 339.5,240.5C 338.596,239.791 338.263,238.791 338.5,237.5C 339.222,237.918 339.722,238.584 340,239.5C 340.333,238.833 340.667,238.167 341,237.5C 344.766,240.325 348.266,243.491 351.5,247C 353.11,248.495 354.776,248.661 356.5,247.5C 360.896,252.68 366.229,255.347 372.5,255.5C 373.609,256.29 374.942,256.79 376.5,257C 376.167,257.333 375.833,257.667 375.5,258C 376.833,258.167 378.167,258.333 379.5,258.5C 381.981,257.103 385.314,256.103 389.5,255.5C 390.451,256.326 391.451,256.492 392.5,256C 394.891,254.691 394.891,253.691 392.5,253C 394.246,252.529 395.913,251.862 397.5,251C 410.018,237.76 412.018,222.26 403.5,204.5C 403.709,203.914 404.043,203.414 404.5,203C 402.208,198.337 399.208,193.67 395.5,189C 396.056,188.617 396.389,188.117 396.5,187.5 Z"/></g>
<g><path style="opacity:1" fill="#2f3a50" d="M 429.5,222.5 C 432.547,225.545 435.213,228.878 437.5,232.5C 436.512,237.64 436.179,242.974 436.5,248.5C 434.983,248.511 433.816,249.177 433,250.5C 428.587,271.913 415.753,285.08 394.5,290C 395.738,290.69 395.738,291.19 394.5,291.5C 387.664,291.26 380.997,290.427 374.5,289C 375.252,289.671 375.586,290.504 375.5,291.5C 370.605,286.057 365.938,280.39 361.5,274.5C 361.62,273.414 362.287,272.747 363.5,272.5C 366.04,274.938 369.04,276.605 372.5,277.5C 374.291,278.391 376.124,279.391 378,280.5C 379.073,279.72 380.24,279.887 381.5,281C 380.167,281.667 380.167,282.333 381.5,283C 383.774,283.47 385.774,284.47 387.5,286C 390.167,286.667 392.833,286.667 395.5,286C 400.212,283.595 404.878,281.095 409.5,278.5C 412.845,274.655 416.345,270.989 420,267.5C 420.333,266.167 420.667,264.833 421,263.5C 424.305,260.905 426.639,257.571 428,253.5C 428.961,246.511 429.794,239.511 430.5,232.5C 430.471,230.971 429.804,229.804 428.5,229C 428.861,226.733 429.195,224.566 429.5,222.5 Z"/></g>
<g><path style="opacity:1" fill="#0e1424" d="M 409.5,198.5 C 413.738,203.309 417.738,208.309 421.5,213.5C 422.327,217.807 422.993,222.14 423.5,226.5C 423.631,227.239 423.464,227.906 423,228.5C 422.667,226.5 422.333,224.5 422,222.5C 421.667,227.5 421.333,232.5 421,237.5C 418.376,244.096 415.71,250.762 413,257.5C 405.065,267.216 394.899,272.883 382.5,274.5C 378.906,271.209 374.573,269.376 369.5,269C 367.167,267.333 364.833,265.667 362.5,264C 363.167,263.667 363.833,263.333 364.5,263C 356.155,259.137 348.821,253.97 342.5,247.5C 350.757,253.27 359.091,258.436 367.5,263C 371.191,263.42 374.858,263.92 378.5,264.5C 378.297,266.39 378.963,267.89 380.5,269C 384.325,268.442 387.992,268.608 391.5,269.5C 397.421,266.709 403.088,263.709 408.5,260.5C 409.949,255.536 412.115,250.869 415,246.5C 416.118,240.95 417.284,235.45 418.5,230C 416.379,219.636 413.045,209.636 408.5,200C 408.57,199.235 408.903,198.735 409.5,198.5 Z"/></g>
<g><path style="opacity:1" fill="#3f4759" d="M 436.5,248.5 C 435.98,272.531 424.147,287.865 401,294.5C 398.676,293.584 396.509,292.584 394.5,291.5C 395.738,291.19 395.738,290.69 394.5,290C 415.753,285.08 428.587,271.913 433,250.5C 433.816,249.177 434.983,248.511 436.5,248.5 Z"/></g>
<g><path style="opacity:1" fill="#46546b" d="M 437.5,232.5 C 439.262,233.262 440.262,234.596 440.5,236.5C 439.593,240.324 439.593,244.324 440.5,248.5C 438.844,262.31 433.51,274.476 424.5,285C 421.443,287.723 418.11,290.056 414.5,292C 410.946,293.298 407.446,294.798 404,296.5C 402.506,295.253 401.006,295.253 399.5,296.5C 402.107,297.318 404.774,297.818 407.5,298C 404.607,299.682 401.441,300.515 398,300.5C 392.205,298.124 386.205,296.124 380,294.5C 379.536,295.094 379.369,295.761 379.5,296.5C 378.197,294.858 376.864,293.191 375.5,291.5C 375.586,290.504 375.252,289.671 374.5,289C 380.997,290.427 387.664,291.26 394.5,291.5C 396.509,292.584 398.676,293.584 401,294.5C 424.147,287.865 435.98,272.531 436.5,248.5C 436.179,242.974 436.512,237.64 437.5,232.5 Z"/></g>
<g><path style="opacity:1" fill="#58677d" d="M 440.5,236.5 C 443.49,239.792 446.49,243.126 449.5,246.5C 448.883,246.611 448.383,246.944 448,247.5C 447.667,251.5 447.333,255.5 447,259.5C 443.869,266.539 440.536,273.539 437,280.5C 429.76,291.859 419.926,300.026 407.5,305C 400.299,306.44 393.632,305.274 387.5,301.5C 386.478,301.855 385.811,302.522 385.5,303.5C 383.529,301.192 381.529,298.858 379.5,296.5C 379.369,295.761 379.536,295.094 380,294.5C 386.205,296.124 392.205,298.124 398,300.5C 401.441,300.515 404.607,299.682 407.5,298C 404.774,297.818 402.107,297.318 399.5,296.5C 401.006,295.253 402.506,295.253 404,296.5C 407.446,294.798 410.946,293.298 414.5,292C 418.11,290.056 421.443,287.723 424.5,285C 433.51,274.476 438.844,262.31 440.5,248.5C 439.593,244.324 439.593,240.324 440.5,236.5 Z"/></g>
<g><path style="opacity:1" fill="#151d33" d="M 340.5,245.5 C 341.833,245.5 342.5,246.167 342.5,247.5C 348.821,253.97 356.155,259.137 364.5,263C 363.833,263.333 363.167,263.667 362.5,264C 364.833,265.667 367.167,267.333 369.5,269C 374.573,269.376 378.906,271.209 382.5,274.5C 385.305,275.319 388.305,275.819 391.5,276C 389.059,277.446 386.392,278.279 383.5,278.5C 380.416,276.952 377.082,275.952 373.5,275.5C 373.213,276.2 372.88,276.867 372.5,277.5C 369.04,276.605 366.04,274.938 363.5,272.5C 362.287,272.747 361.62,273.414 361.5,274.5C 354.505,265.852 347.505,257.186 340.5,248.5C 340.5,247.5 340.5,246.5 340.5,245.5 Z"/></g>
<g><path style="opacity:1" fill="#242c3e" d="M 421.5,213.5 C 424.861,215.895 427.528,218.895 429.5,222.5C 429.195,224.566 428.861,226.733 428.5,229C 429.804,229.804 430.471,230.971 430.5,232.5C 429.794,239.511 428.961,246.511 428,253.5C 426.639,257.571 424.305,260.905 421,263.5C 420.667,264.833 420.333,266.167 420,267.5C 416.345,270.989 412.845,274.655 409.5,278.5C 404.878,281.095 400.212,283.595 395.5,286C 392.833,286.667 390.167,286.667 387.5,286C 385.774,284.47 383.774,283.47 381.5,283C 380.167,282.333 380.167,281.667 381.5,281C 380.24,279.887 379.073,279.72 378,280.5C 376.124,279.391 374.291,278.391 372.5,277.5C 372.88,276.867 373.213,276.2 373.5,275.5C 377.082,275.952 380.416,276.952 383.5,278.5C 383.962,279.88 384.962,280.547 386.5,280.5C 390.138,279.818 393.805,279.318 397.5,279C 408.422,271.412 417.255,261.912 424,250.5C 426.157,243.248 426.657,235.915 425.5,228.5C 425.253,227.287 424.586,226.62 423.5,226.5C 422.993,222.14 422.327,217.807 421.5,213.5 Z"/></g>
<g><path style="opacity:1" fill="#b6c9d7" d="M 463.5,263.5 C 466.167,266.833 468.833,270.167 471.5,273.5C 468.834,275.172 468.167,277.506 469.5,280.5C 469.24,284.007 468.24,284.674 466.5,282.5C 464.026,290.75 460.86,298.75 457,306.5C 454.436,309.28 452.103,312.28 450,315.5C 446.389,318.568 442.889,321.734 439.5,325C 431.207,328.465 422.541,330.798 413.5,332C 412.244,332.417 411.577,333.25 411.5,334.5C 409.367,332.909 407.701,330.909 406.5,328.5C 406.953,327.542 407.619,326.708 408.5,326C 429.416,326.094 444.583,316.594 454,297.5C 455.945,290.944 458.445,284.611 461.5,278.5C 461.848,273.889 462.015,269.222 462,264.5C 462.383,263.944 462.883,263.611 463.5,263.5 Z"/></g>
<g><path style="opacity:1" fill="#72849a" d="M 449.5,246.5 C 451.167,248.5 452.833,250.5 454.5,252.5C 450.734,262.096 447.567,272.763 445,284.5C 443.36,286.579 442.194,288.912 441.5,291.5C 438.225,293.604 435.891,296.437 434.5,300C 431.644,301.657 428.978,303.657 426.5,306C 421.713,307.483 417.046,309.15 412.5,311C 408.486,311.39 404.486,311.89 400.5,312.5C 397.93,311.786 395.43,310.786 393,309.5C 392.235,309.57 391.735,309.903 391.5,310.5C 389.529,308.192 387.529,305.858 385.5,303.5C 385.811,302.522 386.478,301.855 387.5,301.5C 393.632,305.274 400.299,306.44 407.5,305C 419.926,300.026 429.76,291.859 437,280.5C 440.536,273.539 443.869,266.539 447,259.5C 447.333,255.5 447.667,251.5 448,247.5C 448.383,246.944 448.883,246.611 449.5,246.5 Z"/></g>
<g><path style="opacity:1" fill="#655f6d" d="M 313.5,250.5 C 316.4,250.879 318.733,252.212 320.5,254.5C 321.192,253.975 321.692,253.308 322,252.5C 323.503,256.81 325.17,257.144 327,253.5C 327.273,255.101 327.773,256.601 328.5,258C 327.448,259.716 328.114,260.716 330.5,261C 330.167,261.333 329.833,261.667 329.5,262C 330.924,264.101 332.258,266.267 333.5,268.5C 334.748,267.96 335.915,267.293 337,266.5C 339.888,268.986 342.721,268.986 345.5,266.5C 347.186,267.857 348.852,269.19 350.5,270.5C 365.914,287.578 380.581,305.244 394.5,323.5C 392.681,322.416 391.015,321.082 389.5,319.5C 386.176,322.155 382.843,324.822 379.5,327.5C 381.568,329.945 383.735,332.278 386,334.5C 387.955,332.018 390.121,331.852 392.5,334C 391.809,335.067 391.309,336.234 391,337.5C 389.927,336.72 388.76,336.887 387.5,338C 388.337,339.011 388.67,340.178 388.5,341.5C 363.152,311.483 338.152,281.149 313.5,250.5 Z"/></g>
<g><path style="opacity:1" fill="#9eb3c5" d="M 458.5,257.5 C 460.137,259.475 461.804,261.475 463.5,263.5C 462.883,263.611 462.383,263.944 462,264.5C 462.015,269.222 461.848,273.889 461.5,278.5C 458.445,284.611 455.945,290.944 454,297.5C 444.583,316.594 429.416,326.094 408.5,326C 407.619,326.708 406.953,327.542 406.5,328.5C 402.487,324.485 398.821,320.152 395.5,315.5C 395.62,314.414 396.287,313.747 397.5,313.5C 401.716,315.569 406.049,315.903 410.5,314.5C 410.833,314.833 411.167,315.167 411.5,315.5C 410.624,316.251 409.624,316.751 408.5,317C 411.047,317.66 413.547,317.493 416,316.5C 417.396,317.394 418.896,318.061 420.5,318.5C 440.781,311.444 452.447,297.277 455.5,276C 455.155,274.427 454.489,273.26 453.5,272.5C 454.21,268.196 454.71,263.863 455,259.5C 455.71,258.027 456.876,257.36 458.5,257.5 Z"/></g>
<g><path style="opacity:1" fill="#1a1b1d" d="M 327.5,239.5 C 331.106,241.437 334.106,244.103 336.5,247.5C 337.429,246.311 337.762,244.978 337.5,243.5C 338.687,245.072 339.687,246.739 340.5,248.5C 347.505,257.186 354.505,265.852 361.5,274.5C 365.938,280.39 370.605,286.057 375.5,291.5C 376.864,293.191 378.197,294.858 379.5,296.5C 381.529,298.858 383.529,301.192 385.5,303.5C 387.529,305.858 389.529,308.192 391.5,310.5C 392.864,312.191 394.197,313.858 395.5,315.5C 398.821,320.152 402.487,324.485 406.5,328.5C 407.701,330.909 409.367,332.909 411.5,334.5C 412.833,336.167 414.167,337.833 415.5,339.5C 414.5,339.5 413.5,339.5 412.5,339.5C 411.833,339.5 411.167,339.5 410.5,339.5C 408.138,336.808 405.804,334.141 403.5,331.5C 378.544,300.542 353.211,269.875 327.5,239.5 Z"/></g>
<g><path style="opacity:1" fill="#8b9eb1" d="M 454.5,252.5 C 455.833,254.167 457.167,255.833 458.5,257.5C 456.876,257.36 455.71,258.027 455,259.5C 454.71,263.863 454.21,268.196 453.5,272.5C 454.489,273.26 455.155,274.427 455.5,276C 452.447,297.277 440.781,311.444 420.5,318.5C 418.896,318.061 417.396,317.394 416,316.5C 413.547,317.493 411.047,317.66 408.5,317C 409.624,316.751 410.624,316.251 411.5,315.5C 411.167,315.167 410.833,314.833 410.5,314.5C 406.049,315.903 401.716,315.569 397.5,313.5C 396.287,313.747 395.62,314.414 395.5,315.5C 394.197,313.858 392.864,312.191 391.5,310.5C 391.735,309.903 392.235,309.57 393,309.5C 395.43,310.786 397.93,311.786 400.5,312.5C 404.486,311.89 408.486,311.39 412.5,311C 417.046,309.15 421.713,307.483 426.5,306C 428.978,303.657 431.644,301.657 434.5,300C 435.891,296.437 438.225,293.604 441.5,291.5C 442.194,288.912 443.36,286.579 445,284.5C 447.567,272.763 450.734,262.096 454.5,252.5 Z"/></g>
<g><path style="opacity:1" fill="#70677a" d="M 394.5,323.5 C 397.081,326.688 400.081,329.355 403.5,331.5C 405.804,334.141 408.138,336.808 410.5,339.5C 411.625,341.129 412.959,342.629 414.5,344C 413.837,345.518 412.837,346.685 411.5,347.5C 411.5,347.167 411.5,346.833 411.5,346.5C 412.815,345.105 412.481,344.105 410.5,343.5C 409.157,340.327 407.157,339.827 404.5,342C 402.241,343.715 400.074,345.548 398,347.5C 397.51,348.793 397.343,350.127 397.5,351.5C 393.788,348.789 390.788,345.456 388.5,341.5C 388.67,340.178 388.337,339.011 387.5,338C 388.76,336.887 389.927,336.72 391,337.5C 391.309,336.234 391.809,335.067 392.5,334C 390.121,331.852 387.955,332.018 386,334.5C 383.735,332.278 381.568,329.945 379.5,327.5C 382.843,324.822 386.176,322.155 389.5,319.5C 391.015,321.082 392.681,322.416 394.5,323.5 Z"/></g>
<g><path style="opacity:1" fill="#c9d7e0" d="M 471.5,273.5 C 477.781,282.138 477.948,290.804 472,299.5C 459.485,315.672 446.652,331.505 433.5,347C 426.228,347.53 420.228,345.03 415.5,339.5C 414.167,337.833 412.833,336.167 411.5,334.5C 411.577,333.25 412.244,332.417 413.5,332C 422.541,330.798 431.207,328.465 439.5,325C 442.889,321.734 446.389,318.568 450,315.5C 452.103,312.28 454.436,309.28 457,306.5C 460.86,298.75 464.026,290.75 466.5,282.5C 468.24,284.674 469.24,284.007 469.5,280.5C 468.167,277.506 468.834,275.172 471.5,273.5 Z"/></g>
<g><path style="opacity:1" fill="#736e77" d="M 479.5,288.5 C 480.167,288.5 480.833,288.5 481.5,288.5C 482.572,292.165 482.405,295.831 481,299.5C 467.389,317.749 453.555,335.749 439.5,353.5C 439.218,352.222 438.551,351.222 437.5,350.5C 450.796,334.599 463.629,318.266 476,301.5C 479.021,297.71 480.188,293.377 479.5,288.5 Z"/></g>
<g><path style="opacity:1" fill="#cdbce2" d="M 410.5,343.5 C 412.481,344.105 412.815,345.105 411.5,346.5C 408.139,347.684 405.139,349.517 402.5,352C 401.056,352.781 399.723,352.614 398.5,351.5C 401.587,347.301 405.587,344.635 410.5,343.5 Z"/></g>
<g><path style="opacity:1" fill="#998da6" d="M 410.5,343.5 C 405.587,344.635 401.587,347.301 398.5,351.5C 399.723,352.614 401.056,352.781 402.5,352C 405.139,349.517 408.139,347.684 411.5,346.5C 411.5,346.833 411.5,347.167 411.5,347.5C 407.264,349.445 403.597,352.112 400.5,355.5C 398.738,354.738 397.738,353.404 397.5,351.5C 397.343,350.127 397.51,348.793 398,347.5C 400.074,345.548 402.241,343.715 404.5,342C 407.157,339.827 409.157,340.327 410.5,343.5 Z"/></g>
<g><path style="opacity:1" fill="#312f35" d="M 410.5,339.5 C 411.167,339.5 411.833,339.5 412.5,339.5C 415.926,343.848 419.926,347.515 424.5,350.5C 422.265,351.248 422.598,352.081 425.5,353C 420.054,355.611 414.72,358.444 409.5,361.5C 406.013,360.255 403.013,358.255 400.5,355.5C 403.597,352.112 407.264,349.445 411.5,347.5C 412.837,346.685 413.837,345.518 414.5,344C 412.959,342.629 411.625,341.129 410.5,339.5 Z"/></g>
<g><path style="opacity:1" fill="#312e34" d="M 424.5,350.5 C 428.88,351.695 433.213,351.695 437.5,350.5C 438.551,351.222 439.218,352.222 439.5,353.5C 438.833,353.833 438.167,354.167 437.5,354.5C 432.588,354.75 428.255,353.416 424.5,350.5 Z"/></g>
<g><path style="opacity:1" fill="#ab9cbc" d="M 418.5,364.5 C 416.214,364.405 414.214,363.738 412.5,362.5C 415.932,360.248 419.266,357.748 422.5,355C 424.579,354.192 426.579,354.359 428.5,355.5C 424.452,357.89 421.118,360.89 418.5,364.5 Z"/></g>
<g><path style="opacity:1" fill="#7a7184" d="M 424.5,350.5 C 428.255,353.416 432.588,354.75 437.5,354.5C 432.159,359.671 425.825,363.004 418.5,364.5C 421.118,360.89 424.452,357.89 428.5,355.5C 426.579,354.359 424.579,354.192 422.5,355C 419.266,357.748 415.932,360.248 412.5,362.5C 411.209,362.737 410.209,362.404 409.5,361.5C 414.72,358.444 420.054,355.611 425.5,353C 422.598,352.081 422.265,351.248 424.5,350.5 Z"/></g>
</svg>
